<?xml version="1.0" encoding="UTF-8"?>
<svg id="Layer_2" data-name="Layer 2" xmlns="http://www.w3.org/2000/svg" viewBox="0 0 262 182.22">
  <g id="Layer_1-2" data-name="Layer 1">
    <g>
      <path d="M196,25.19c-1.73.44-4.64,3.17-4.64,3.17-.78-1.39-2.2-1.93-2.2-1.93,0,0,2.29-3.01,1.71-3.76-.58-.75-4.93,2.55-4.93,2.55-6.9-1.33-12.66-1.36-17.49-.44-5.6,1.22-10.13,3.77-13.75,6.83-1.13,1.02-2.14,2.06-3.05,3.11-4.17,5.09-6.62,11.23-8.43,16.58,0,0,0,.02-.01.03-.54-.26-1.05-.55-1.52-.83-.82-.56-1.55-1.08-2.17-1.54-.03-.03-.06-.05-.06-.05l-.08-.09c.09-.04.18-.11.21-.21.04-.14.03-.34.01-.46.21-.83.02-2.93.02-2.93,0,0,.05-.11.09-.25.06-.19.13-.44.09-.57-.06-.23-.81-.38-1.11-.36-.09,0-.2.02-.32.03-.27-2.23-.84-5.12-2.09-5.99-.42-.29-.9-.37-1.38-.21-.49.16-.86.5-1.06,1-.68,1.65.64,5.01,1.49,6.88-.14.16-.38.44-.68.81l-9.74-2.03-.22-1.71-.56-.64c.65.06,2.42.2,3.49-.1,1.32-.38,4.46-4.66,4.46-4.66,0,0,3.78-.83,5.08-1.78.34-.24,1.06-.78,1.93-1.44,0,0-.02,0-.02,0l3.3-2.48c.07.11.15.22.25.32l-.25.41-.09-.06c-.1-.06-.24-.03-.3.07-.06.1-.03.24.07.3l.82.5c.1.06.24.03.3-.07.06-.1.03-.24-.07-.3l-.09-.06.25-.41c.65.23,1.34.06,1.66-.46.26-.42.19-.96-.11-1.4l.28-.46.21.13c.12.07.27.03.34-.08.07-.12.03-.27-.08-.34l-.21-.13.02-.03.16-.23c.38.03,1.31.09,1.64-.09.41-.23.56-.9.75-1.28.16-.32.21-.95.22-1.15.11-.03.23-.06.3-.09.14-.06.13-.25.11-.38l.24.02.76-1.25-.43-.26,11.52-18.54,1.99-6.4-4.76,4.7-11.25,18.7-.43-.26-.76,1.25.48.76h-.09s-.38-.54-.56-.54-.6.15-.64.34c-.04.19.07.81.07.81-.17.38-.14.69-.09.88-.28.22-.75.56-1.29.93-.8.48-1.78,1.01-2.45,1.2-.19.05-.42.13-.67.21-1.57.44-3.69.95-4.18,1.24-.68.4-3.23,3-3.23,3-2.53,0-7.46,2.06-8.48,2.51-1.05-.81-3.58-2.32-6.64-1.22l-1.25-1.25c1.79.65,3.02-.71,3.06-.81.04-.1-.21-.51-.21-.51l.06-.45s.21-.04.41-.14c.2-.1.14-.5.14-.5l.47-.23c-.02-.06-.03-.15-.03-.26.1-.14.18-.3.21-.49l.75-.09-.18-1.72-.38-.89.35-.6.34.12s.33-.83.45-1.97c.6.22,1.31.34,1.31.34l.07-.21c-.29-.23-.99-.53-1.34-.67.06-1.83-.57-4.17-3.74-5.27-.07-.2-.12-.34-.12-.34,0,0-.36-.14-.93-.22l.08-3.53c.41,0,2.22.14,2.44,3.33l1.47.03.71-.65,4.33-1.55c.03-.31.05-.62.03-.94-.2-4.47-4.91-7.9-10.55-7.67h0c-5.63.28-10.03,4.1-9.83,8.57.01.32.06.63.11.93l4.45,1.16.77.58,1.46-.16c-.05-2.89,1.42-3.42,2-3.51l.45,3.36-.74.18-.06.25c-3.14,1.02-4.26,4.92-4.35,6.23,0,0-5.26-.6-5.48-.43-.21.17.13.34.28.43.14.08,5.52,2.09,6.32,2.38l-1.4,4.11s-1.95,4.7-1.9,7.41c.06,2.71,1.2,6.47,6.96,13.09,0,0-2.37,2.51-2.78,3.69-.14.32-.31.85-.47,1.38,0,0,0,0,0,0-.02.07-.05.15-.07.21-1.21-.51-2.02-.83-2.02-.83-1.22-.32-2.39-.55-3.51-.72-2.14-.23-4.29-.33-6.39-.22-6.84.57-10.6,3.63-10.6,3.63-.37-.13-.71-.28-1.03-.45-1.33-.61-3.23-2.21-4.38-6.39-1.92-6.96-8.82.55-9.05,1.39-.2.74,1.44,4.91,9.9,9.73-.2.3-.39.61-.57.93-6.32,10.28-2.82,17.56-1.01,20.49.22.42.37.76.38,1.08.04,1.55,1.11,3.46,1.11,3.46,0,0-1.88,3.83-3.5,5.68-1.62,1.84-4.13,3.5-6.71,4.46-2.58.96-2.29,4.5-2.47,5.53-.18,1.03-.92,3.61-1.18,6.38-.26,2.76-3.02,10.62-3.91,12.79-.88,2.17-.22,3.94,1.11,4.9,1.33.96,1.81,3.65,1.81,3.65,0,0-1.47,1.29-1.73,1.88-.26.59.18,1.4.18,1.4l.44,3.01s7.7-.03,9.21-.03c1.25,0,1.14-.37,1.14-.37l-1.84-4.5c.33-1.14-.92-1.95-1.66-2.51-.74-.55-1.51-2.84-.88-4.02.63-1.18.37-3.06.04-3.98-.33-.92,1.95-9.84,2.87-11.65.92-1.81,2.84-3.17,4.61-5.31,1.77-2.14,3.54-4.13,6.89-5.34,3.35-1.22,6.41-5.38,6.89-5.64.48-.26,3.02-1.77,3.02-1.77.37.63,1.73,1.44,1.73,1.44,0,0,0,1.95-.55,3.65-.55,1.7-2.32,4.05-3.69,5.16-1.36,1.11-3.1,1.7-3.21,4.2-.11,2.51,3.39,3.24,5.2,4.75,1.81,1.51,3.17,2.29,6.23,3.72,3.06,1.44,5.38,5.05,6.16,6.6.77,1.55,2.62.7,3.02,1.03.41.33.26,1.11.26,1.11,0,0-1.55.74-1.99,1.47-.44.74-.07,1-.07,1l-.44,3.13s6.12,2.88,7.45,3.21c1.33.33,1.22-.22,1.22-.22l.15-4.57c1.44-1,.17-2.49.17-2.49.39-2.16-.61-3.43-1.11-4.42s-.28-2.21-.61-3.59c-.33-1.38-5.03-4.09-7.91-5.36s-5.14-3.87-5.09-6.3c.06-2.43,5.25-4.64,6.63-5.53,1.38-.88,5.42-7.19,5.42-7.19,5.58,4.81,25.88,1.66,26.32,1.94.44.28.5,1.55.5,1.55.5,2.16-1.18,9.95-1.55,11.35-.37,1.4-.11,1.92-.18,3.17-.07,1.25-2.36,9.14-2.87,10.39-.52,1.25-1.88,3.32-2.03,4.98-.15,1.66,1.33,2.36,2.21,2.73.88.37,2.17,2.51,2.17,2.51,0,0-.74,1.44-.96,2.8-.22,1.36.88,1.07.88,1.07l.48,1.88h9.03c1.14,0,.59-.63.59-.63,0,0-2.21-2.54-1.84-3.8.37-1.25-1.81-1.95-1.81-1.95,0,0-2.25-1.95-2.25-2.91s-.48-2.69-.55-3.61c-.07-.92.74-8.37,2.21-9.44s3.58-4.79,3.58-5.6.11-4.35,2.17-7.11c2.06-2.76,4.46-7.81,4.46-7.81.85-.59,1.58-1.73,1.58-1.73,0,0,1.81.18,8.51.15,6.71-.04,14.56-3.1,14.56-3.1,0,0,1.7,1.92,1.77,3.69.07,1.77-1.66,6.41-2.29,7.3-.63.88-1.07,2.03-1.51,3.1-.44,1.07.26,1.88.26,1.88l-.11.92s-1.55-.52-2.36-.44c-.81.07-1.73,1.44-1.73,1.44-.48-.15-1.14.15-1.14.15,0,0-.52,9.18-.52,9.99s.77.41.77.41l4.68-2.36s1.03.55,1.55,0c.52-.55,1.36-2.54,1.36-2.54,0,0,3.5-3.02,5.23-5.23,1.73-2.21.85-4.94,1.03-7.33.18-2.4,1.18-4.98,2.69-9.07,1.51-4.09-1.11-8.33-2.03-8.99-.92-.66-7.37-.59-10.73-.92-3.35-.33-7.85-1.84-7.85-1.84,0,0,1.25-1.03,1.4-1.77s.52-6.27.29-7.22c-.22-.96-1.81-2.76-1.81-2.76,0,0,.81-1.29,1.84-4.42.09-.28.17-.61.23-.96,1.81-1.34,3.37-2.68,4.58-3.81,1.48.37,3.34-.91,3.34-.91,0,0,1.84,1.4,4.13.7,2.29-.7,1.99-3.02,1.99-3.02,1.47-.52,1.07-2.25,1.07-2.25.44-.15.29-.7,0-1.25-.29-.55-.15-2.25.26-4.24.41-1.99.11-4.28.15-6.12.04-1.84.77-2.69,1.44-3.54.66-.85,1.84-1.84,1.44-2.36-.41-.52-.7-2.47-.7-2.47.37-.92.55-3.24.55-3.24l.33.55c.29-.88-.07-2.14-.07-2.14,3.76-1.36,3.76-5.2,3.76-5.2ZM142.77,52.47c-.33.77-.71,1.48-1.13,2.13-.59-1-1.08-2.07-1.44-3-.04-.1-.08-.2-.11-.29l-.09-.23s-.03-.09-.05-.13l.04.06s-.02-.08-.03-.13c.39.28.96.62,1.47.92,0,0,0,0,0,0h0c.65.38,1.21.68,1.21.68h.12ZM134.97,39.32c.07-.17.16-.26.31-.31.13-.04.22-.02.33.05.77.54,1.32,3.01,1.61,5.42,0,0-.35-.34-.67-.34,0,0-.31,0-.48.25-.81-1.94-1.48-4.14-1.1-5.07ZM132.31,60.72s0,0,0,0l-5.97-8.92-.26-2.7c1.33.1,4.18.32,6.78.48h0s.21,1.09.66,1.2c.36.09,1.96-.7,2.58-1.01.64.03,1.17.05,1.52.04l.55-.16c.59,1.99,2.18,5.48,2.52,6.22-2.21,2.64-5.22,4.12-8.38,4.85ZM173.59,52.32c-.11-2.43.92-4.9.92-4.9,0,0,.22,2.06,1.14,4.13.92,2.06,1.33,4.05,1.11,5.46-.07.42-.11.84-.11,1.24-.88.25-1.77.47-2.66.63-.09-2.67-.34-5.3-.4-6.56ZM173.96,62.71c.05-.82.07-1.69.06-2.6.95-.17,1.9-.38,2.84-.65.08.19.2.36.34.53-.91.83-2,1.76-3.24,2.72ZM181.83,37.02c0-.8.64-1.44,1.44-1.44s1.44.64,1.44,1.44-.64,1.44-1.44,1.44-1.44-.64-1.44-1.44ZM184.65,56.6c-.64,0-1.16-.52-1.16-1.16s.52-1.16,1.16-1.16,1.16.52,1.16,1.16-.52,1.16-1.16,1.16Z"/>
      <g>
        <g>
          <path d="M16.84,176.2l-.14,5.78H0v-.67h.58c.84,0,1.42-.11,1.75-.32.32-.21.53-.54.62-.99s.14-1.49.14-3.14v-9.64c0-1.56-.05-2.57-.14-3.03-.09-.45-.28-.77-.58-.94-.29-.17-.94-.26-1.93-.26h-.43v-.67h9.43v.67h-.87c-.97,0-1.6.08-1.9.24s-.5.46-.6.89c-.1.43-.15,1.47-.15,3.1v10.29c0,1.42.04,2.31.12,2.67.08.36.29.64.63.83s1.08.3,2.21.3h1.49c1.21,0,2.1-.11,2.69-.32.58-.21,1.14-.68,1.67-1.39.53-.71,1.01-1.85,1.44-3.4h.68Z"/>
          <path d="M21.41,163v-.67h8.98v.67h-.42c-.97,0-1.6.08-1.9.24-.3.16-.5.46-.6.89-.1.43-.15,1.47-.15,3.1v9.64c0,1.55.04,2.56.11,3.04.07.48.27.83.58,1.07.31.23.92.35,1.8.35h.58v.67h-8.98v-.67h.58c.84,0,1.42-.11,1.75-.32.32-.21.53-.54.62-.99s.13-1.49.13-3.14v-9.64c0-1.56-.04-2.57-.13-3.03-.09-.45-.28-.77-.58-.94-.3-.17-.95-.26-1.94-.26h-.42Z"/>
          <path d="M45.04,171.41c2.23.16,3.89.72,4.97,1.67,1.08.95,1.62,2.13,1.62,3.55,0,1.24-.37,2.3-1.1,3.19-.73.89-1.67,1.48-2.82,1.75-1.14.28-2.68.41-4.6.41h-7.71v-.67h.75c.84,0,1.42-.11,1.75-.32.32-.21.53-.54.62-.99s.13-1.49.13-3.14v-9.56c0-1.59-.05-2.62-.14-3.09s-.29-.78-.58-.96c-.3-.17-.94-.26-1.93-.26h-.38v-.67l3.23-.09,3.68-.12c5.37,0,8.06,1.55,8.06,4.64,0,1.28-.46,2.3-1.38,3.07-.92.77-2.31,1.29-4.17,1.56ZM41.49,171.13c.24,0,.44.01.61.01,2.09,0,3.51-.33,4.27-.99.76-.66,1.14-1.72,1.14-3.19,0-1.02-.15-1.82-.45-2.38-.3-.56-.75-.99-1.35-1.3-.6-.3-1.62-.46-3.07-.46-.38,0-.76.01-1.16.04v8.24ZM41.49,171.84v4.38c0,1.86.03,3.05.1,3.55.07.5.25.88.54,1.14.29.26.88.39,1.75.39,1.55,0,2.7-.4,3.48-1.19.77-.79,1.16-1.98,1.16-3.56s-.44-2.82-1.31-3.59c-.87-.77-2.41-1.15-4.61-1.15-.35,0-.71,0-1.1.03Z"/>
          <path d="M78.08,181.98h-5.29c-.94-.66-2.37-2.38-4.3-5.16-.62-.89-1.26-1.74-1.93-2.56s-1.13-1.31-1.38-1.49c-.25-.18-.64-.27-1.17-.27h-.78v4.36c0,1.55.04,2.56.11,3.04.07.48.27.83.58,1.07.31.23.92.35,1.8.35h.94v.67h-9.4v-.67h.64c.84,0,1.42-.11,1.75-.32.32-.21.53-.54.62-.99s.13-1.49.13-3.14v-9.64c0-1.56-.04-2.57-.13-3.03-.09-.45-.28-.77-.58-.94-.3-.17-.95-.26-1.94-.26h-.33v-.67l2.81-.15c1.87-.09,3.36-.13,4.46-.13,1.87,0,3.4.17,4.57.52,1.17.35,2.12.92,2.85,1.71.72.79,1.09,1.74,1.09,2.84,0,1.28-.47,2.38-1.42,3.29-.95.91-2.34,1.47-4.17,1.7.82.4,2.14,1.83,3.97,4.29,1.49,2,2.66,3.31,3.51,3.93.85.62,1.85.95,3.01.99v.67ZM63.23,171.84c.72-.02,1.47-.05,2.25-.09.77-.04,1.44-.14,2.01-.32.57-.17,1.03-.43,1.38-.76.35-.33.63-.77.83-1.31.2-.54.3-1.21.3-2,0-1.38-.35-2.49-1.04-3.32-.69-.83-2.2-1.25-4.51-1.25-.36,0-.77.02-1.23.06v8.98Z"/>
          <path d="M94.51,174.74h-7.46l-.51,1.25c-.75,1.81-1.13,2.98-1.13,3.54,0,.59.2,1.04.6,1.34.4.3.92.46,1.54.46v.67h-5.84v-.67c.87-.14,1.52-.44,1.94-.92.42-.48.94-1.49,1.54-3.02.05-.14.28-.7.7-1.68l5.71-13.63h.56l6.56,15.6.9,2.06c.2.46.48.83.82,1.09.34.27.86.43,1.54.5v.67h-7.72v-.67c.95,0,1.59-.07,1.92-.21s.5-.42.5-.83c0-.21-.22-.85-.67-1.9l-1.51-3.64ZM94.26,174.09l-3.48-8.37-3.46,8.37h6.94Z"/>
          <path d="M126.93,181.98h-5.29c-.94-.66-2.37-2.38-4.3-5.16-.62-.89-1.26-1.74-1.93-2.56s-1.13-1.31-1.38-1.49c-.25-.18-.64-.27-1.17-.27h-.78v4.36c0,1.55.04,2.56.11,3.04.07.48.27.83.58,1.07.31.23.92.35,1.8.35h.94v.67h-9.4v-.67h.64c.84,0,1.42-.11,1.75-.32.32-.21.53-.54.62-.99s.13-1.49.13-3.14v-9.64c0-1.56-.04-2.57-.13-3.03-.09-.45-.28-.77-.58-.94-.3-.17-.95-.26-1.94-.26h-.33v-.67l2.81-.15c1.87-.09,3.36-.13,4.46-.13,1.87,0,3.4.17,4.57.52,1.17.35,2.12.92,2.85,1.71.72.79,1.09,1.74,1.09,2.84,0,1.28-.47,2.38-1.42,3.29-.95.91-2.34,1.47-4.17,1.7.82.4,2.14,1.83,3.97,4.29,1.49,2,2.66,3.31,3.51,3.93.85.62,1.85.95,3.01.99v.67ZM112.08,171.84c.72-.02,1.47-.05,2.25-.09.77-.04,1.44-.14,2.01-.32.57-.17,1.03-.43,1.38-.76.35-.33.63-.77.83-1.31.2-.54.3-1.21.3-2,0-1.38-.35-2.49-1.04-3.32-.69-.83-2.2-1.25-4.51-1.25-.36,0-.77.02-1.23.06v8.98Z"/>
          <path d="M137.87,173.39l3.87-6.51c.64-1.06.96-1.82.96-2.26,0-.41-.17-.78-.51-1.12s-.94-.51-1.81-.51v-.67h6.42v.67c-.89.13-1.61.46-2.15.99-.55.54-1.24,1.51-2.09,2.92l-4.4,7.35v2.61c0,1.67.05,2.74.15,3.19.1.46.32.78.65.97.33.19.99.28,1.96.28v.67h-8.37v-.67h.32c.84,0,1.42-.11,1.75-.32.32-.21.53-.54.62-.99s.13-1.49.13-3.14v-2.42l-4.9-8.04c-.99-1.62-1.66-2.59-1.98-2.9-.33-.31-.92-.48-1.77-.5v-.67h7.97v.67c-1.49,0-2.23.34-2.23,1.01,0,.27.25.81.74,1.62l4.69,7.75Z"/>
        </g>
        <g>
          <path d="M158.46,174.03c0-.87.2-1.82.61-2.84.41-1.02.98-1.86,1.74-2.49.75-.64,1.48-.96,2.2-.96.64,0,1.17.27,1.59.82.42.55.62,1.29.62,2.22,0,1.13-.23,2.2-.7,3.22-.46,1.01-1.05,1.79-1.74,2.33-.7.54-1.39.81-2.06.81-.6,0-1.13-.23-1.58-.7-.45-.46-.68-1.27-.68-2.41ZM159.62,175.28c0,.39.1.72.3,1,.2.28.48.41.84.41.97,0,1.77-.92,2.4-2.76.63-1.84.94-3.25.94-4.22,0-.5-.1-.87-.29-1.12-.19-.25-.48-.38-.86-.38-.91,0-1.69.85-2.34,2.56s-.98,3.21-.98,4.5Z"/>
          <path d="M172.53,167.99l-.14.48h-1.9l-1.68,6.36c-.77,2.88-1.61,4.81-2.52,5.79-.91.99-1.92,1.48-3.01,1.48-.61,0-1.16-.14-1.65-.42-.49-.28-.73-.63-.73-1.05,0-.24.08-.43.23-.59.15-.15.33-.23.53-.23.24,0,.43.09.58.26.15.17.22.35.22.55,0,.05-.01.14-.03.27l-.02.18c0,.14.09.26.26.38.17.12.38.17.63.17.87,0,1.6-.46,2.2-1.39.59-.93,1.27-2.79,2.02-5.57l1.66-6.18h-2.14l.14-.48h2.15c.02-.09.08-.3.17-.63.98-3.61,2.56-5.41,4.75-5.41.62,0,1.1.14,1.43.41.33.28.49.55.49.81,0,.38-.18.58-.54.58-.29,0-.6-.25-.92-.75-.23-.36-.51-.54-.84-.54-.49,0-.96.23-1.41.68-.45.45-.95,1.68-1.49,3.69l-.32,1.16h1.89Z"/>
        </g>
        <g>
          <path d="M207.76,182.22h-.65l-5.98-16.2-5.23,16.2h-.7l-4.74-15.3c-.43-1.39-.73-2.32-.92-2.77-.19-.46-.43-.8-.74-1.01s-.81-.34-1.51-.37v-.67h7.37v.67c-.89.06-1.46.19-1.71.38-.25.2-.38.48-.38.83,0,.32.2,1.13.61,2.45l3.51,11.45,5.13-15.78h.81l5.77,15.78,3-10.43c.4-1.41.59-2.33.59-2.77,0-1.27-.68-1.91-2.04-1.91v-.67h5.36v.67c-.79.06-1.38.35-1.77.88-.39.53-.87,1.79-1.46,3.79l-4.32,14.79Z"/>
          <path d="M229.58,174.5h-7.46l-.51,1.25c-.75,1.81-1.13,2.98-1.13,3.54,0,.59.2,1.04.6,1.34.4.3.92.46,1.54.46v.67h-5.84v-.67c.87-.14,1.52-.44,1.94-.92.42-.48.94-1.49,1.54-3.02.05-.14.28-.7.7-1.68l5.71-13.63h.56l6.56,15.6.9,2.06c.2.46.48.83.82,1.09.34.27.86.43,1.54.5v.67h-7.72v-.67c.95,0,1.59-.07,1.92-.21s.5-.42.5-.83c0-.21-.22-.85-.67-1.9l-1.51-3.64ZM229.33,173.85l-3.48-8.37-3.46,8.37h6.94Z"/>
          <path d="M262,181.74h-5.29c-.94-.66-2.37-2.38-4.3-5.16-.62-.89-1.26-1.74-1.93-2.56s-1.13-1.31-1.38-1.49c-.25-.18-.64-.27-1.17-.27h-.78v4.36c0,1.55.04,2.56.11,3.04.07.48.27.83.58,1.07.31.23.92.35,1.8.35h.94v.67h-9.4v-.67h.64c.84,0,1.42-.11,1.75-.32.32-.21.53-.54.62-.99s.13-1.49.13-3.14v-9.64c0-1.56-.04-2.57-.13-3.03-.09-.45-.28-.77-.58-.94-.3-.17-.95-.26-1.94-.26h-.33v-.67l2.81-.15c1.87-.09,3.36-.13,4.46-.13,1.87,0,3.4.17,4.57.52,1.17.35,2.12.92,2.85,1.71.72.79,1.09,1.74,1.09,2.84,0,1.28-.47,2.38-1.42,3.29-.95.91-2.34,1.47-4.17,1.7.82.4,2.14,1.83,3.97,4.29,1.49,2,2.66,3.31,3.51,3.93.85.62,1.85.95,3.01.99v.67ZM247.15,171.6c.72-.02,1.47-.05,2.25-.09.77-.04,1.44-.14,2.01-.32.57-.17,1.03-.43,1.38-.76.35-.33.63-.77.83-1.31.2-.54.3-1.21.3-2,0-1.38-.35-2.49-1.04-3.32-.69-.83-2.2-1.25-4.51-1.25-.36,0-.77.02-1.23.06v8.98Z"/>
        </g>
      </g>
    </g>
  </g>
</svg>