<?xml version="1.0" encoding="UTF-8"?>
<svg id="Layer_2" data-name="Layer 2" xmlns="http://www.w3.org/2000/svg" viewBox="0 0 325.69 76">
  <g id="Layer_1-2" data-name="Layer 1">
    <g>
      <path d="M70.47,14.28c-.94.24-2.52,1.72-2.52,1.72-.42-.75-1.19-1.04-1.19-1.04,0,0,1.24-1.63.93-2.04-.31-.4-2.67,1.38-2.67,1.38-3.74-.72-6.86-.74-9.48-.24-3.04.66-5.49,2.05-7.45,3.7-.61.55-1.16,1.12-1.65,1.69-2.26,2.76-3.59,6.09-4.57,8.99,0,0,0,0,0,.01-.29-.14-.57-.3-.82-.45-.44-.3-.84-.59-1.17-.83-.02-.02-.03-.03-.03-.03l-.04-.05s.1-.06.12-.12c.02-.08.01-.19,0-.25.11-.45.01-1.59.01-1.59,0,0,.03-.06.05-.14.03-.1.07-.24.05-.31-.03-.13-.44-.21-.6-.2-.05,0-.11,0-.17.02-.14-1.21-.46-2.78-1.13-3.25-.23-.16-.49-.2-.75-.11-.27.08-.46.27-.57.54-.37.9.35,2.72.81,3.73-.07.09-.21.24-.37.44l-5.28-1.1-.12-.93-.3-.35c.35.03,1.31.11,1.89-.05.71-.2,2.42-2.53,2.42-2.53,0,0,2.05-.45,2.75-.96.18-.13.57-.42,1.05-.78,0,0,0,0,0,0l1.79-1.34c.04.06.08.12.14.17l-.14.22-.05-.03c-.06-.03-.13-.02-.16.04-.03.06-.02.13.04.16l.44.27c.06.03.13.02.16-.04.03-.06.02-.13-.04-.16l-.05-.03.14-.22c.35.13.73.03.9-.25.14-.23.11-.52-.06-.76l.15-.25.11.07c.06.04.15.02.18-.04.04-.06.02-.15-.04-.18l-.11-.07v-.02s.1-.12.1-.12c.2.02.71.05.89-.05.22-.12.31-.49.41-.69.09-.17.11-.51.12-.62.06-.01.12-.03.16-.05.08-.03.07-.13.06-.21h.13s.41-.66.41-.66l-.23-.14,6.24-10.05,1.08-3.47-2.58,2.55-6.1,10.14-.23-.14-.41.68.26.41h-.05s-.2-.29-.31-.29-.33.08-.35.18c-.02.1.04.44.04.44-.09.21-.07.37-.05.47-.15.12-.41.3-.7.5-.43.26-.96.55-1.33.65-.1.03-.23.07-.36.11-.85.24-2,.52-2.27.67-.37.21-1.75,1.63-1.75,1.63-1.37,0-4.04,1.12-4.6,1.36-.57-.44-1.94-1.26-3.6-.66l-.68-.68c.97.35,1.64-.38,1.66-.44.02-.05-.11-.28-.11-.28l.03-.25s.11-.02.22-.08c.11-.05.08-.27.08-.27l.25-.12s-.02-.08-.01-.14c.05-.08.1-.16.11-.26l.41-.05-.1-.93-.21-.48.19-.32.19.06s.18-.45.24-1.07c.32.12.71.18.71.18l.04-.12c-.16-.13-.54-.29-.73-.36.03-.99-.31-2.26-2.03-2.85-.04-.11-.07-.19-.07-.19,0,0-.2-.07-.5-.12l.04-1.91c.22,0,1.2.08,1.32,1.8l.8.02.39-.35,2.35-.84c.02-.17.03-.34.02-.51-.11-2.42-2.66-4.28-5.72-4.16h0c-3.05.15-5.44,2.22-5.33,4.65,0,.17.03.34.06.51l2.41.63.42.32.79-.09c-.03-1.57.77-1.85,1.08-1.9l.24,1.82-.4.1-.03.13c-1.7.55-2.31,2.67-2.36,3.38,0,0-2.85-.33-2.97-.24-.12.09.07.18.15.23.07.04,2.99,1.13,3.43,1.29l-.76,2.23s-1.06,2.55-1.03,4.02c.03,1.47.65,3.51,3.77,7.1,0,0-1.28,1.36-1.5,2-.07.17-.17.46-.25.75,0,0,0,0,0,0-.01.04-.03.08-.04.12-.66-.28-1.1-.45-1.1-.45-.66-.17-1.3-.3-1.9-.39-1.16-.13-2.33-.18-3.46-.12-3.71.31-5.75,1.97-5.75,1.97-.2-.07-.38-.15-.56-.25-.72-.33-1.75-1.2-2.37-3.46-1.04-3.77-4.78.3-4.9.76-.11.4.78,2.66,5.37,5.28-.11.16-.21.33-.31.5-3.43,5.57-1.53,9.52-.55,11.11.12.23.2.41.2.59.02.84.6,1.88.6,1.88,0,0-1.02,2.08-1.9,3.08-.88,1-2.24,1.9-3.64,2.42-1.4.52-1.24,2.44-1.34,3-.1.56-.5,1.96-.64,3.46-.14,1.5-1.64,5.75-2.12,6.93-.48,1.18-.12,2.14.6,2.66.72.52.98,1.98.98,1.98,0,0-.8.7-.94,1.02-.14.32.1.76.1.76l.24,1.63s4.18-.02,5-.02c.68,0,.62-.2.62-.2l-1-2.44c.18-.62-.5-1.06-.9-1.36-.4-.3-.82-1.54-.48-2.18.34-.64.2-1.66.02-2.16-.18-.5,1.06-5.33,1.56-6.31.5-.98,1.54-1.72,2.5-2.88.96-1.16,1.92-2.24,3.74-2.9,1.82-.66,3.48-2.92,3.74-3.06.26-.14,1.64-.96,1.64-.96.2.34.94.78.94.78,0,0,0,1.06-.3,1.98-.3.92-1.26,2.2-2,2.8-.74.6-1.68.92-1.74,2.28-.06,1.36,1.84,1.76,2.82,2.58.98.82,1.72,1.24,3.38,2.02,1.66.78,2.92,2.74,3.34,3.58.42.84,1.42.38,1.64.56.22.18.14.6.14.6,0,0-.84.4-1.08.8-.24.4-.04.54-.04.54l-.24,1.7s3.32,1.56,4.04,1.74c.72.18.66-.12.66-.12l.08-2.48c.78-.54.09-1.35.09-1.35.21-1.17-.33-1.86-.6-2.4s-.15-1.2-.33-1.95c-.18-.75-2.73-2.22-4.29-2.91s-2.79-2.1-2.76-3.42c.03-1.32,2.85-2.52,3.6-3,.75-.48,2.94-3.9,2.94-3.9,3.03,2.61,14.03.9,14.27,1.05.24.15.27.84.27.84.27,1.17-.64,5.39-.84,6.15-.2.76-.06,1.04-.1,1.72-.04.68-1.28,4.96-1.56,5.63-.28.68-1.02,1.8-1.1,2.7-.08.9.72,1.28,1.2,1.48.48.2,1.18,1.36,1.18,1.36,0,0-.4.78-.52,1.52-.12.74.48.58.48.58l.26,1.02h4.9c.62,0,.32-.34.32-.34,0,0-1.2-1.38-1-2.06.2-.68-.98-1.06-.98-1.06,0,0-1.22-1.06-1.22-1.58s-.26-1.46-.3-1.96c-.04-.5.4-4.54,1.2-5.12s1.94-2.6,1.94-3.04.06-2.36,1.18-3.86c1.12-1.5,2.42-4.24,2.42-4.24.46-.32.86-.94.86-.94,0,0,.98.1,4.62.08,3.64-.02,7.89-1.68,7.89-1.68,0,0,.92,1.04.96,2,.04.96-.9,3.48-1.24,3.96-.34.48-.58,1.1-.82,1.68-.24.58.14,1.02.14,1.02l-.06.5s-.84-.28-1.28-.24c-.44.04-.94.78-.94.78-.26-.08-.62.08-.62.08,0,0-.28,4.98-.28,5.41s.42.22.42.22l2.54-1.28s.56.3.84,0c.28-.3.74-1.38.74-1.38,0,0,1.9-1.64,2.84-2.84.94-1.2.46-2.68.56-3.98.1-1.3.64-2.7,1.46-4.92.82-2.22-.6-4.52-1.1-4.88-.5-.36-4-.32-5.81-.5-1.82-.18-4.26-1-4.26-1,0,0,.68-.56.76-.96s.28-3.4.16-3.92c-.12-.52-.98-1.5-.98-1.5,0,0,.44-.7,1-2.4.05-.15.09-.33.12-.52.98-.73,1.82-1.45,2.48-2.07.8.2,1.81-.49,1.81-.49,0,0,1,.76,2.24.38,1.24-.38,1.08-1.64,1.08-1.64.8-.28.58-1.22.58-1.22.24-.08.16-.38,0-.68-.16-.3-.08-1.22.14-2.3.22-1.08.06-2.32.08-3.32.02-1,.42-1.46.78-1.92.36-.46,1-1,.78-1.28-.22-.28-.38-1.34-.38-1.34.2-.5.3-1.76.3-1.76l.18.3c.16-.48-.04-1.16-.04-1.16,2.04-.74,2.04-2.82,2.04-2.82ZM41.62,29.07c-.18.42-.38.8-.61,1.15-.32-.54-.58-1.12-.78-1.63-.02-.05-.04-.11-.06-.16l-.05-.12s-.02-.05-.03-.07l.02.03s-.01-.05-.02-.07c.21.15.52.34.8.5,0,0,0,0,0,0h0c.35.2.65.37.65.37h.07ZM37.39,21.94c.04-.09.09-.14.17-.17.07-.02.12-.01.18.03.42.29.72,1.63.87,2.94,0,0-.19-.18-.36-.18,0,0-.17,0-.26.14-.44-1.05-.8-2.25-.6-2.75ZM35.95,33.54s0,0,0,0l-3.24-4.84-.14-1.46c.72.06,2.27.17,3.67.26h0s.12.59.36.65c.19.05,1.06-.38,1.4-.55.35.02.63.02.82.02l.3-.09c.32,1.08,1.18,2.97,1.37,3.37-1.2,1.43-2.83,2.23-4.54,2.63ZM58.32,28.99c-.06-1.32.5-2.66.5-2.66,0,0,.12,1.12.62,2.24.5,1.12.72,2.2.6,2.96-.04.23-.06.45-.06.67-.48.14-.96.25-1.44.34-.05-1.45-.19-2.87-.22-3.55ZM58.52,34.62c.03-.44.04-.92.03-1.41.51-.09,1.03-.21,1.54-.35.04.1.11.2.18.29-.49.45-1.09.96-1.75,1.47ZM62.79,20.69c0-.43.35-.78.78-.78s.78.35.78.78-.35.78-.78.78-.78-.35-.78-.78ZM64.32,31.3c-.35,0-.63-.28-.63-.63s.28-.63.63-.63.63.28.63.63-.28.63-.63.63Z"/>
      <g>
        <g>
          <path d="M117.43,22.66l-.23,9.26h-26.75v-1.07h.93c1.35,0,2.28-.17,2.8-.51.52-.34.85-.87,1-1.59s.22-2.39.22-5.03v-15.44c0-2.51-.07-4.12-.22-4.85-.15-.73-.46-1.23-.93-1.51-.47-.28-1.51-.42-3.1-.42h-.7V.44h15.12v1.07h-1.39c-1.55,0-2.56.13-3.04.38s-.8.73-.96,1.43c-.16.7-.24,2.35-.24,4.97v16.49c0,2.28.06,3.7.19,4.27.12.57.46,1.02,1.01,1.33s1.73.48,3.54.48h2.39c1.93,0,3.37-.17,4.31-.51.94-.34,1.83-1.08,2.67-2.23.84-1.15,1.61-2.96,2.31-5.46h1.09Z"/>
          <path d="M124.76,1.51V.44h14.4v1.07h-.67c-1.55,0-2.56.13-3.04.38-.48.26-.8.73-.96,1.43-.16.7-.24,2.35-.24,4.97v15.44c0,2.48.06,4.1.17,4.86.12.77.43,1.34.93,1.71.5.37,1.47.56,2.89.56h.93v1.07h-14.4v-1.07h.93c1.35,0,2.28-.17,2.8-.51.52-.34.85-.87.99-1.59s.21-2.39.21-5.03v-15.44c0-2.51-.07-4.12-.21-4.85-.14-.73-.45-1.23-.93-1.51-.48-.28-1.52-.42-3.11-.42h-.67Z"/>
          <path d="M162.63,14.98c3.58.26,6.23,1.15,7.96,2.67,1.73,1.52,2.6,3.41,2.6,5.69,0,1.98-.59,3.69-1.76,5.12-1.18,1.43-2.68,2.37-4.52,2.81-1.83.44-4.29.66-7.37.66h-12.35v-1.07h1.21c1.35,0,2.28-.17,2.8-.51.52-.34.85-.87.99-1.59s.21-2.39.21-5.03v-15.32c0-2.55-.07-4.2-.22-4.95s-.46-1.25-.93-1.53c-.47-.28-1.51-.42-3.1-.42h-.6V.44l5.18-.14,5.9-.19c8.61,0,12.91,2.48,12.91,7.43,0,2.04-.74,3.68-2.22,4.92-1.48,1.24-3.7,2.07-6.68,2.51ZM156.94,14.54c.39.02.71.02.98.02,3.34,0,5.63-.53,6.85-1.58,1.22-1.05,1.83-2.76,1.83-5.11,0-1.64-.24-2.91-.72-3.81-.48-.9-1.2-1.59-2.16-2.08-.96-.49-2.6-.73-4.92-.73-.6,0-1.22.02-1.86.07v13.21ZM156.94,15.67v7.01c0,2.99.05,4.88.16,5.69.11.8.4,1.42.87,1.83.47.42,1.4.63,2.8.63,2.48,0,4.33-.63,5.57-1.9,1.24-1.27,1.86-3.17,1.86-5.71s-.7-4.52-2.1-5.75c-1.4-1.23-3.87-1.85-7.4-1.85-.56,0-1.15.02-1.76.05Z"/>
          <path d="M215.58,31.93h-8.48c-1.5-1.05-3.8-3.81-6.9-8.27-.99-1.42-2.02-2.79-3.09-4.1s-1.8-2.11-2.21-2.39c-.4-.29-1.03-.43-1.88-.43h-1.25v6.99c0,2.48.06,4.1.17,4.86.12.77.43,1.34.93,1.71.5.37,1.47.56,2.89.56h1.51v1.07h-15.07v-1.07h1.02c1.35,0,2.28-.17,2.8-.51.52-.34.85-.87.99-1.59s.21-2.39.21-5.03v-15.44c0-2.51-.07-4.12-.21-4.85-.14-.73-.45-1.23-.93-1.51-.48-.28-1.52-.42-3.11-.42h-.53V.44l4.5-.23c3-.14,5.39-.21,7.15-.21,3,0,5.45.28,7.33.84,1.88.56,3.4,1.47,4.56,2.74,1.16,1.27,1.74,2.79,1.74,4.55,0,2.06-.76,3.82-2.28,5.27-1.52,1.46-3.75,2.36-6.69,2.72,1.32.63,3.44,2.93,6.36,6.87,2.38,3.2,4.26,5.3,5.62,6.29,1.36.99,2.97,1.52,4.83,1.58v1.07ZM191.78,15.67c1.16-.03,2.36-.08,3.6-.14,1.24-.06,2.31-.23,3.23-.51.91-.28,1.65-.69,2.22-1.22.56-.53,1.01-1.23,1.33-2.1.32-.87.49-1.93.49-3.2,0-2.21-.55-3.99-1.66-5.32-1.11-1.33-3.52-2-7.23-2-.57,0-1.23.03-1.97.09v14.4Z"/>
          <path d="M241.91,20.32h-11.96l-.81,2c-1.21,2.89-1.81,4.78-1.81,5.67,0,.94.32,1.66.96,2.15.64.49,1.47.73,2.47.73v1.07h-9.36v-1.07c1.39-.22,2.43-.71,3.11-1.47.68-.77,1.5-2.38,2.46-4.84.08-.23.45-1.13,1.11-2.69L237.24,0h.91l10.52,25.01,1.44,3.3c.33.74.76,1.33,1.31,1.75.55.43,1.37.69,2.47.8v1.07h-12.38v-1.07c1.52,0,2.54-.11,3.08-.34s.8-.67.8-1.33c0-.34-.36-1.35-1.07-3.04l-2.41-5.83ZM241.51,19.27l-5.57-13.42-5.55,13.42h11.12Z"/>
          <path d="M293.87,31.93h-8.48c-1.5-1.05-3.8-3.81-6.9-8.27-.99-1.42-2.02-2.79-3.09-4.1s-1.8-2.11-2.21-2.39c-.4-.29-1.03-.43-1.88-.43h-1.25v6.99c0,2.48.06,4.1.17,4.86.12.77.43,1.34.93,1.71.5.37,1.47.56,2.89.56h1.51v1.07h-15.07v-1.07h1.02c1.35,0,2.28-.17,2.8-.51.52-.34.85-.87.99-1.59s.21-2.39.21-5.03v-15.44c0-2.51-.07-4.12-.21-4.85-.14-.73-.45-1.23-.93-1.51-.48-.28-1.52-.42-3.11-.42h-.53V.44l4.5-.23c3-.14,5.39-.21,7.15-.21,3,0,5.45.28,7.33.84,1.88.56,3.4,1.47,4.56,2.74,1.16,1.27,1.74,2.79,1.74,4.55,0,2.06-.76,3.82-2.28,5.27-1.52,1.46-3.75,2.36-6.69,2.72,1.32.63,3.44,2.93,6.36,6.87,2.38,3.2,4.26,5.3,5.62,6.29,1.36.99,2.97,1.52,4.83,1.58v1.07ZM270.07,15.67c1.16-.03,2.36-.08,3.6-.14,1.24-.06,2.31-.23,3.23-.51.91-.28,1.65-.69,2.22-1.22.56-.53,1.01-1.23,1.33-2.1.32-.87.49-1.93.49-3.2,0-2.21-.55-3.99-1.66-5.32-1.11-1.33-3.52-2-7.23-2-.57,0-1.23.03-1.97.09v14.4Z"/>
          <path d="M311.39,18.16l6.2-10.43c1.02-1.7,1.53-2.91,1.53-3.62,0-.65-.27-1.25-.81-1.79s-1.51-.81-2.9-.81V.44h10.29v1.07c-1.42.2-2.57.73-3.45,1.59-.87.86-1.99,2.42-3.36,4.68l-7.06,11.77v4.18c0,2.68.08,4.39.24,5.12.16.74.51,1.25,1.05,1.56.53.3,1.58.45,3.15.45v1.07h-13.42v-1.07h.51c1.35,0,2.28-.17,2.8-.51.52-.34.85-.87.99-1.59s.21-2.39.21-5.03v-3.88l-7.85-12.89c-1.59-2.6-2.65-4.15-3.18-4.66-.53-.5-1.47-.77-2.83-.8V.44h12.77v1.07c-2.38,0-3.58.54-3.58,1.63,0,.43.39,1.3,1.18,2.6l7.52,12.42Z"/>
        </g>
        <g>
          <path d="M90.45,62.52c0-1.39.32-2.91.98-4.55.65-1.64,1.58-2.98,2.79-4,1.21-1.02,2.38-1.53,3.52-1.53,1.03,0,1.88.44,2.55,1.31.67.88,1,2.06,1,3.56,0,1.81-.37,3.53-1.11,5.15-.74,1.63-1.68,2.87-2.8,3.74-1.12.86-2.22,1.3-3.3,1.3-.96,0-1.81-.37-2.53-1.11-.72-.74-1.09-2.03-1.09-3.87ZM92.31,64.53c0,.63.16,1.16.49,1.6.32.44.77.66,1.34.66,1.56,0,2.83-1.47,3.84-4.42,1-2.95,1.51-5.2,1.51-6.76,0-.8-.15-1.4-.46-1.8-.31-.4-.77-.6-1.38-.6-1.45,0-2.7,1.37-3.75,4.1-1.05,2.73-1.58,5.14-1.58,7.22Z"/>
          <path d="M113,52.84l-.23.77h-3.05l-2.7,10.19c-1.23,4.61-2.58,7.7-4.04,9.28-1.46,1.58-3.07,2.37-4.82,2.37-.98,0-1.85-.23-2.64-.68-.78-.45-1.18-1.02-1.18-1.69,0-.38.12-.7.37-.94.24-.24.53-.37.85-.37.38,0,.69.14.92.41.23.27.35.57.35.88,0,.08-.02.23-.05.44l-.03.3c0,.22.14.42.42.61.28.19.62.28,1.01.28,1.39,0,2.57-.74,3.52-2.23.95-1.49,2.03-4.46,3.24-8.93l2.66-9.91h-3.43l.23-.77h3.45c.04-.14.13-.48.28-1.01,1.57-5.78,4.1-8.67,7.61-8.67,1,0,1.76.22,2.29.66.53.44.79.88.79,1.31,0,.62-.29.92-.87.92-.46,0-.96-.4-1.48-1.2-.37-.58-.82-.87-1.34-.87-.79,0-1.54.36-2.26,1.09-.72.73-1.51,2.7-2.39,5.91l-.5,1.86h3.03Z"/>
        </g>
        <g>
          <path d="M159.46,75.65h-1.05l-9.59-25.96-8.38,25.96h-1.11l-7.59-24.52c-.68-2.23-1.17-3.71-1.47-4.45-.3-.74-.7-1.28-1.18-1.63s-1.3-.55-2.43-.59v-1.07h11.82v1.07c-1.42.09-2.34.3-2.74.62-.4.32-.6.76-.6,1.33,0,.51.32,1.82.97,3.92l5.62,18.34,8.22-25.29h1.3l9.24,25.29,4.81-16.72c.63-2.26.95-3.74.95-4.44,0-2.04-1.09-3.06-3.27-3.06v-1.07h8.59v1.07c-1.27.09-2.21.56-2.83,1.4-.62.84-1.4,2.87-2.34,6.07l-6.92,23.71Z"/>
          <path d="M194.43,63.27h-11.96l-.81,2c-1.21,2.89-1.81,4.78-1.81,5.67,0,.94.32,1.66.96,2.15.64.49,1.47.73,2.47.73v1.07h-9.36v-1.07c1.39-.22,2.43-.71,3.11-1.47.68-.77,1.5-2.38,2.46-4.84.08-.23.45-1.13,1.11-2.69l9.15-21.85h.91l10.52,25.01,1.44,3.3c.33.74.76,1.33,1.31,1.75.55.43,1.37.69,2.47.8v1.07h-12.38v-1.07c1.52,0,2.54-.11,3.08-.34s.8-.67.8-1.33c0-.34-.36-1.35-1.07-3.04l-2.41-5.83ZM194.03,62.23l-5.57-13.42-5.55,13.42h11.12Z"/>
          <path d="M246.38,74.88h-8.48c-1.5-1.05-3.8-3.81-6.9-8.27-.99-1.42-2.02-2.79-3.09-4.1s-1.8-2.11-2.21-2.39c-.4-.29-1.03-.43-1.88-.43h-1.25v6.99c0,2.48.06,4.1.17,4.86.12.77.43,1.34.93,1.71.5.37,1.47.56,2.89.56h1.51v1.07h-15.07v-1.07h1.02c1.35,0,2.28-.17,2.8-.51.52-.34.85-.87.99-1.59s.21-2.39.21-5.03v-15.44c0-2.51-.07-4.12-.21-4.85-.14-.73-.45-1.23-.93-1.51-.48-.28-1.52-.42-3.11-.42h-.53v-1.07l4.5-.23c3-.14,5.39-.21,7.15-.21,3,0,5.45.28,7.33.84,1.88.56,3.4,1.47,4.56,2.74,1.16,1.27,1.74,2.79,1.74,4.55,0,2.06-.76,3.82-2.28,5.27-1.52,1.46-3.75,2.36-6.69,2.72,1.32.63,3.44,2.93,6.36,6.87,2.38,3.2,4.26,5.3,5.62,6.29,1.36.99,2.97,1.52,4.83,1.58v1.07ZM222.59,58.63c1.16-.03,2.36-.08,3.6-.14,1.24-.06,2.31-.23,3.23-.51.91-.28,1.65-.69,2.22-1.22.56-.53,1.01-1.23,1.33-2.1.32-.87.49-1.93.49-3.2,0-2.21-.55-3.99-1.66-5.32-1.11-1.33-3.52-2-7.23-2-.57,0-1.23.03-1.97.09v14.4Z"/>
        </g>
      </g>
    </g>
  </g>
</svg>